<svg xmlns="http://www.w3.org/2000/svg" viewBox="-20 -20 296 296">
  <path fill="#339933" d="M128.001 245.296c-3.088 0-6.032-.791-8.656-2.228l-27.552-16.32c-4.112-2.304-2.112-3.12-.752-3.6 5.488-1.92 6.592-2.352 12.432-5.68.608-.352 1.408-.224 2.032.16l21.168 12.56c.768.416 1.872.416 2.576 0l82.48-47.616c.768-.448 1.264-1.344 1.264-2.272V83.392c0-.96-.496-1.84-1.296-2.304l-82.448-47.584c-.768-.448-1.776-.448-2.544 0L44.256 81.088c-.816.464-1.312 1.376-1.312 2.32v95.008c0 .928.496 1.824 1.28 2.256l22.608 13.056c12.272 6.144 19.76-.96 19.76-7.808V91.616c0-1.344 1.072-2.416 2.4-2.416h10.4c1.312 0 2.4 1.072 2.4 2.416v94.304c0 15.776-8.592 24.816-23.536 24.816-4.592 0-8.224 0-18.336-4.976l-21.632-12.464c-5.36-3.088-8.672-8.88-8.672-15.072V83.216c0-6.192 3.312-11.984 8.672-15.088l82.48-47.664c5.216-2.96 12.16-2.96 17.344 0l82.48 47.664c5.36 3.104 8.688 8.896 8.688 15.088V178.24c0 6.192-3.328 11.984-8.688 15.056l-82.48 47.6c-2.608 1.456-5.552 2.192-8.624 2.192v.208zM159.009 177.328c-35.024 0-42.336-16.096-42.336-29.6 0-1.344 1.072-2.416 2.4-2.416h10.624c1.2 0 2.208.864 2.368 2.048 1.6 10.848 6.368 16.304 28.032 16.304 17.264 0 24.608-3.888 24.608-13.024 0-5.264-2.08-9.168-28.896-11.792-22.432-2.208-36.32-7.168-36.32-25.088 0-16.528 13.936-26.368 37.296-26.368 26.24 0 39.2 9.104 40.848 28.64.064.688-.176 1.36-.624 1.872-.448.48-1.072.768-1.728.768h-10.656c-1.12 0-2.096-.816-2.336-1.888-2.592-11.536-8.928-15.232-25.504-15.232-18.8 0-20.992 6.544-20.992 11.424 0 5.936 2.576 7.664 28.032 11.008 25.2 3.312 37.2 8 37.2 25.696-.016 17.856-14.88 28.048-40.832 28.048l-.184-.4z"/>
</svg>
