<svg xmlns="http://www.w3.org/2000/svg" viewBox="-25 -25 168 168">
  <defs>
    <linearGradient id="a" x1="12.959%" x2="79.639%" y1="12.039%" y2="78.201%">
      <stop offset="0%" stop-color="#387eb8"/>
      <stop offset="100%" stop-color="#366994"/>
    </linearGradient>
    <linearGradient id="b" x1="19.128%" x2="90.742%" y1="20.579%" y2="88.429%">
      <stop offset="0%" stop-color="#ffe052"/>
      <stop offset="100%" stop-color="#ffc331"/>
    </linearGradient>
  </defs>
  <path fill="url(#a)" d="M57.53 6.054c-4.61 0-9.009.407-12.984 1.133-11.713 2.14-13.838 6.617-13.838 14.872v10.9h27.682v3.633H24.21c-8.039 0-15.08 4.835-17.285 14.032-2.543 10.542-2.656 17.117 0 28.122 1.97 8.19 6.674 14.032 14.713 14.032h9.52V78.26c0-9.132 7.9-17.182 17.285-17.182h27.657c7.687 0 13.838-6.329 13.838-14.057V18.059c0-7.528-6.345-13.182-13.838-14.872-4.741-.949-9.664-1.133-14.567-1.133zM42.935 14.89a5.188 5.188 0 0 1 5.195 5.226 5.195 5.195 0 0 1-5.195 5.22 5.2 5.2 0 0 1-5.194-5.22 5.194 5.194 0 0 1 5.194-5.226z"/>
  <path fill="url(#b)" d="M89.608 34.592v14.05c0 9.528-8.112 17.426-17.285 17.426H44.666c-7.563 0-13.838 6.47-13.838 14.057v26.362c0 7.528 6.545 11.959 13.838 14.057 8.738 2.51 17.122 2.965 27.657 0 7.003-1.966 13.838-5.926 13.838-14.057v-10.54H58.524v-3.633h41.495c8.039 0 11.035-5.608 13.838-14.032 2.894-8.677 2.771-17.024 0-28.122-1.991-7.998-5.794-14.032-13.838-14.032h-10.41v-.536zM75.063 101.91a5.195 5.195 0 0 1 5.194 5.22 5.2 5.2 0 0 1-5.194 5.227 5.189 5.189 0 0 1-5.195-5.226 5.195 5.195 0 0 1 5.195-5.22z"/>
</svg>
